# xmcd
#
# Track frame offsets:
#	150
#	16017
#	30023
#	47400
#	68160
#	87199
#	101442
#	119010
#	137406
#	149547
#	170114
#	185726
#	202932
#	219017
#	235254
#	252526
#	267905
#	282941
#	303253
#	322590
#	338785
#
# Disc length: 4713 seconds
#
# Revision: 0
# Processed by: cddbd v1.5.2PL0 Copyright (c) Steve Scherf et al.
# Submitted via: EZCDAudioConverter 2.4.0.1
#
DISCID=1e126715
DTITLE=Various Artist - Sertanejos Românticos - Volume 009
DYEAR=2007
DGENRE=Sertanejo
TTITLE0=Nathalia Siqueira -  Você Vai Voltar Pra Mim
TTITLE1=Victor and Léo - Tem Que Ser Você (Ao Vivo)
TTITLE2=Felipe and Falcão - Deixa Eu Te Amar Por Favor
TTITLE3=Daniel - Um Homem Apaixonado
TTITLE4=Leonardo  - Coração Bandido
TTITLE5=Jorge and Matheus - De Tanto Te Querer
TTITLE6=Rick and Renner - Negativo, Positivo
TTITLE7=Daniel - Difícil Não Falar de Amor
TTITLE8=Christian and Ralf - Pagina Arrancada
TTITLE9=Hugo Pena and Gabriel - Vou te Amar (Cigana) (Ao Vivo)
TTITLE10=Daniel - Quase Louco
TTITLE11=Zezé di Camargo and Luciano - O Que Vai Ser De Nós
TTITLE12=Bruno and Marrone - Coisa De Pele
TTITLE13=Victor and Léo -  Amigo Apaixonado
TTITLE14=Wanessa Camargo Feat. Camila - Me Abrace
TTITLE15=KLB Feat. Zezé Di Camargo and Luciano - A Garota de Ontem (The girl fro
TTITLE15=m yesterday)
TTITLE16=Leandro and Leonardo - Não Olhe Assim
TTITLE17=Guilherme and Santiago - Viver Longe De Você Não Dá
TTITLE18=Chitãozinho and Xororó - É Assim Que Te Amo
TTITLE19=Renê and Ronaldo - Cicatriz
TTITLE20=Mauricio and Mauri - Olhos nos olhos
EXTD=
EXTT0=
EXTT1=
EXTT2=
EXTT3=
EXTT4=
EXTT5=
EXTT6=
EXTT7=
EXTT8=
EXTT9=
EXTT10=
EXTT11=
EXTT12=
EXTT13=
EXTT14=
EXTT15=
EXTT16=
EXTT17=
EXTT18=
EXTT19=
EXTT20=
PLAYORDER=
